# Blender v2.80 (sub 75) OBJ File: ''
# www.blender.org
mtllib barn.mtl
o Cube
v 1.000000 2.000000 -0.502307
v 1.000000 0.000000 -1.000000
v 1.000000 2.000000 0.496838
v 1.000000 0.000000 1.000000
v -1.000000 2.000000 -0.502307
v -1.000000 0.000000 -1.000000
v -1.000000 2.000000 0.496838
v -1.000000 0.000000 1.000000
v 1.000000 1.497693 -1.000000
v -1.000000 1.497693 1.000000
v 1.000000 1.497693 1.000000
v -1.000000 1.497693 -1.000000
vt 0.375000 0.000000
vt 0.625000 0.000000
vt 0.625000 0.250000
vt 0.375000 0.250000
vt 0.500000 0.250000
vt 0.625000 0.250000
vt 0.625000 0.500000
vt 0.500000 0.500000
vt 0.625000 0.750000
vt 0.500000 0.750000
vt 0.375000 0.750000
vt 0.625000 0.750000
vt 0.625000 1.000000
vt 0.375000 1.000000
vt 0.250000 0.500000
vt 0.375000 0.500000
vt 0.375000 0.750000
vt 0.250000 0.750000
vt 0.750000 0.500000
vt 0.875000 0.500000
vt 0.875000 0.750000
vt 0.750000 0.750000
vt 0.625000 0.500000
vt 0.125000 0.500000
vt 0.125000 0.750000
vt 0.375000 0.500000
vt 0.375000 0.250000
vn 0.0000 1.0000 0.0000
vn 0.0000 0.7077 0.7065
vn -1.0000 -0.0000 0.0000
vn 0.0000 -1.0000 0.0000
vn 1.0000 0.0000 0.0000
vn 0.0000 0.7038 -0.7104
vn 0.0000 0.0000 -1.0000
vn 0.0000 0.0000 1.0000
usemtl Material
s off
f 1/1/1 5/2/1 7/3/1 3/4/1
f 11/5/2 3/6/2 7/7/2 10/8/2
f 10/8/3 7/7/3 5/9/3 12/10/3
f 6/11/4 2/12/4 4/13/4 8/14/4
f 9/15/5 1/16/5 3/17/5 11/18/5
f 12/19/6 5/20/6 1/21/6 9/22/6
f 6/23/7 12/19/7 9/22/7 2/12/7
f 2/24/5 9/15/5 11/18/5 4/25/5
f 8/26/3 10/8/3 12/10/3 6/11/3
f 4/27/8 11/5/8 10/8/8 8/26/8
