# Blender v2.80 (sub 75) OBJ File: ''
# www.blender.org
mtllib missile.mtl
o missile
v 1.079862 0.142659 -0.046353
v 1.079862 0.121353 -0.088168
v -0.633720 0.121353 -0.088168
v -0.633720 0.142659 -0.046353
v 1.079862 0.088168 -0.121353
v -0.633720 0.088168 -0.121353
v 1.079862 0.046353 -0.142659
v -0.633720 0.046353 -0.142659
v 1.079862 0.000000 -0.150000
v -0.633720 0.000000 -0.150000
v 1.079862 -0.046353 -0.142659
v -0.633720 -0.046353 -0.142659
v 1.079862 -0.088168 -0.121353
v -0.633720 -0.088168 -0.121353
v 1.079862 -0.121353 -0.088168
v -0.633720 -0.121353 -0.088168
v 1.079862 -0.142659 -0.046353
v -0.633720 -0.142659 -0.046353
v 1.079862 -0.150000 -0.000000
v -0.633720 -0.150000 -0.000000
v 1.079862 -0.142659 0.046353
v -0.633720 -0.142659 0.046353
v 1.079862 -0.121353 0.088168
v -0.633720 -0.121353 0.088168
v 1.079862 -0.088168 0.121353
v -0.633720 -0.088168 0.121353
v 1.079862 -0.046353 0.142658
v -0.633720 -0.046353 0.142658
v 1.079862 -0.000000 0.150000
v -0.633720 -0.000000 0.150000
v 1.079862 0.046353 0.142658
v -0.633720 0.046353 0.142658
v 1.079862 0.088168 0.121353
v -0.633720 0.088168 0.121353
v 1.079862 0.121353 0.088168
v -0.633720 0.121353 0.088168
v 1.079862 0.142658 0.046353
v -0.633720 0.142658 0.046353
v 1.079862 0.150000 0.000000
v -0.633720 0.150000 0.000000
v 1.079862 0.000000 0.000000
v -0.946758 0.000000 0.000000
v 0.980948 0.375361 0.017497
v 1.040342 0.375361 0.017497
v 1.040342 0.375361 -0.018951
v 0.980948 0.375361 -0.018951
v 1.047309 0.125011 -0.023227
v 0.349975 0.125011 -0.023227
v 1.047309 0.125011 0.021773
v 0.349975 0.125011 0.021773
v 0.980948 0.018355 -0.376087
v 1.040342 0.018355 -0.376087
v 1.040342 -0.018355 -0.376087
v 0.980948 -0.018355 -0.376087
v 1.047309 -0.022661 -0.125738
v 0.349975 -0.022661 -0.125738
v 1.047309 0.022661 -0.125738
v 0.349975 0.022661 -0.125738
v 0.980948 -0.018355 0.374634
v 1.040342 -0.018355 0.374634
v 1.040342 0.018355 0.374634
v 0.980948 0.018355 0.374634
v 1.047309 0.022661 0.124285
v 0.349975 0.022661 0.124285
v 1.047309 -0.022661 0.124285
v 0.349975 -0.022661 0.124285
v 0.980948 -0.375361 -0.018951
v 1.040342 -0.375361 -0.018951
v 1.040342 -0.375361 0.017497
v 0.980948 -0.375361 0.017497
v 1.047309 -0.125011 0.021773
v 0.349975 -0.125011 0.021773
v 1.047309 -0.125011 -0.023227
v 0.349975 -0.125011 -0.023227
vt 0.000000 0.159155
vt 0.050000 0.159155
vt 0.050000 0.477465
vt 0.000000 0.477465
vt 0.100000 0.159155
vt 0.100000 0.477465
vt 0.150000 0.159155
vt 0.150000 0.477465
vt 0.200000 0.159155
vt 0.200000 0.477465
vt 0.250000 0.159155
vt 0.250000 0.477465
vt 0.300000 0.159155
vt 0.300000 0.477465
vt 0.350000 0.159155
vt 0.350000 0.477465
vt 0.400000 0.159155
vt 0.400000 0.477465
vt 0.450000 0.159155
vt 0.450000 0.477465
vt 0.500000 0.159155
vt 0.500000 0.477465
vt 0.550000 0.159155
vt 0.550000 0.477465
vt 0.600000 0.159155
vt 0.600000 0.477465
vt 0.650000 0.159155
vt 0.650000 0.477465
vt 0.700000 0.159155
vt 0.700000 0.477465
vt 0.750000 0.159155
vt 0.750000 0.477465
vt 0.800000 0.159155
vt 0.800000 0.477465
vt 0.850000 0.159155
vt 0.850000 0.477465
vt 0.900000 0.159155
vt 0.900000 0.477465
vt 0.950000 0.159155
vt 0.950000 0.477465
vt 1.000000 0.159155
vt 1.000000 0.477465
vt 0.500000 0.000000
vt 0.500000 0.636620
vt 0.000000 0.000000
vt 1.000000 0.000000
vt 1.000000 1.000000
vt 0.000000 1.000000
vt 1.000000 2.000000
vt 0.000000 2.000000
vt 1.000000 3.000000
vt 0.000000 3.000000
vt 1.000000 4.000000
vt 0.000000 4.000000
vt 2.000000 0.000000
vt 2.000000 1.000000
vt -1.000000 0.000000
vt -1.000000 1.000000
vt 0.000000 0.000000
vt 1.000000 0.000000
vt 1.000000 1.000000
vt 0.000000 1.000000
vt 1.000000 2.000000
vt 0.000000 2.000000
vt 1.000000 3.000000
vt 0.000000 3.000000
vt 1.000000 4.000000
vt 0.000000 4.000000
vt 2.000000 0.000000
vt 2.000000 1.000000
vt -1.000000 0.000000
vt -1.000000 1.000000
vt 0.000000 0.000000
vt 1.000000 0.000000
vt 1.000000 1.000000
vt 0.000000 1.000000
vt 1.000000 2.000000
vt 0.000000 2.000000
vt 1.000000 3.000000
vt 0.000000 3.000000
vt 1.000000 4.000000
vt 0.000000 4.000000
vt 2.000000 0.000000
vt 2.000000 1.000000
vt -1.000000 0.000000
vt -1.000000 1.000000
vt 0.000000 0.000000
vt 1.000000 0.000000
vt 1.000000 1.000000
vt 0.000000 1.000000
vt 1.000000 2.000000
vt 0.000000 2.000000
vt 1.000000 3.000000
vt 0.000000 3.000000
vt 1.000000 4.000000
vt 0.000000 4.000000
vt 2.000000 0.000000
vt 2.000000 1.000000
vt -1.000000 0.000000
vt -1.000000 1.000000
vn 0.0000 0.9511 -0.3090
vn 0.0000 0.8090 -0.5878
vn 0.0000 0.5878 -0.8090
vn 0.0000 0.3090 -0.9511
vn 0.0000 0.0000 -1.0000
vn 0.0000 -0.3090 -0.9511
vn 0.0000 -0.5878 -0.8090
vn 0.0000 -0.8090 -0.5878
vn 0.0000 -0.9511 -0.3090
vn 0.0000 -1.0000 -0.0000
vn 0.0000 -0.9511 0.3090
vn 0.0000 -0.8090 0.5878
vn 0.0000 -0.5878 0.8090
vn 0.0000 -0.3090 0.9511
vn 0.0000 -0.0000 1.0000
vn 0.0000 0.3090 0.9511
vn 0.0000 0.5878 0.8090
vn 0.0000 0.8090 0.5878
vn 0.0000 0.9511 0.3090
vn 0.0000 1.0000 0.0000
vn 1.0000 0.0000 0.0000
vn -0.4321 0.8577 -0.2787
vn -0.4321 0.7296 -0.5301
vn -1.0000 0.0000 0.0000
vn -0.4321 0.5301 -0.7296
vn -0.4321 0.2787 -0.8577
vn -0.4321 0.0000 -0.9018
vn -0.4321 -0.2787 -0.8577
vn -0.4321 -0.5301 -0.7296
vn -0.4321 -0.7296 -0.5301
vn -0.4321 -0.8577 -0.2787
vn -0.4321 -0.9018 -0.0000
vn -0.4321 -0.8577 0.2787
vn -0.4321 -0.7296 0.5301
vn -0.4321 -0.5301 0.7296
vn -0.4321 -0.2787 0.8577
vn -0.4321 -0.0000 0.9018
vn -0.4321 0.2787 0.8577
vn -0.4321 0.5301 0.7296
vn -0.4321 0.7296 0.5301
vn -0.4321 0.8577 0.2787
vn -0.4321 0.9018 0.0000
vn 0.0000 0.0171 -0.9999
vn 0.0000 0.0171 0.9999
vn 0.9996 0.0278 0.0000
vn -0.3688 0.9295 0.0000
vn 0.0000 -0.9999 -0.0172
vn 0.0000 0.9999 -0.0172
vn 0.9996 0.0000 -0.0278
vn -0.3688 0.0000 -0.9295
vn 0.0000 0.9999 0.0172
vn 0.0000 -0.9999 0.0172
vn 0.9996 0.0000 0.0278
vn -0.3688 0.0000 0.9295
vn 0.0000 -0.0171 0.9999
vn 0.0000 -0.0171 -0.9999
vn 0.9996 -0.0278 0.0000
vn -0.3688 -0.9295 0.0000
usemtl blinn2SG
s 1
f 1/1/1 2/2/2 3/3/2 4/4/1
f 2/2/2 5/5/3 6/6/3 3/3/2
f 5/5/3 7/7/4 8/8/4 6/6/3
f 7/7/4 9/9/5 10/10/5 8/8/4
f 9/9/5 11/11/6 12/12/6 10/10/5
f 11/11/6 13/13/7 14/14/7 12/12/6
f 13/13/7 15/15/8 16/16/8 14/14/7
f 15/15/8 17/17/9 18/18/9 16/16/8
f 17/17/9 19/19/10 20/20/10 18/18/9
f 19/19/10 21/21/11 22/22/11 20/20/10
f 21/21/11 23/23/12 24/24/12 22/22/11
f 23/23/12 25/25/13 26/26/13 24/24/12
f 25/25/13 27/27/14 28/28/14 26/26/13
f 27/27/14 29/29/15 30/30/15 28/28/14
f 29/29/15 31/31/16 32/32/16 30/30/15
f 31/31/16 33/33/17 34/34/17 32/32/16
f 33/33/17 35/35/18 36/36/18 34/34/17
f 35/35/18 37/37/19 38/38/19 36/36/18
f 37/37/19 39/39/20 40/40/20 38/38/19
f 39/39/20 1/41/1 4/42/1 40/40/20
f 2/2/21 1/1/21 41/43/21
f 5/5/21 2/2/21 41/43/21
f 7/7/21 5/5/21 41/43/21
f 9/9/21 7/7/21 41/43/21
f 11/11/21 9/9/21 41/43/21
f 13/13/21 11/11/21 41/43/21
f 15/15/21 13/13/21 41/43/21
f 17/17/21 15/15/21 41/43/21
f 19/19/21 17/17/21 41/43/21
f 21/21/21 19/19/21 41/43/21
f 23/23/21 21/21/21 41/43/21
f 25/25/21 23/23/21 41/43/21
f 27/27/21 25/25/21 41/43/21
f 29/29/21 27/27/21 41/43/21
f 31/31/21 29/29/21 41/43/21
f 33/33/21 31/31/21 41/43/21
f 35/35/21 33/33/21 41/43/21
f 37/37/21 35/35/21 41/43/21
f 39/39/21 37/37/21 41/43/21
f 1/41/21 39/39/21 41/43/21
f 4/4/22 3/3/23 42/44/24
f 3/3/23 6/6/25 42/44/24
f 6/6/25 8/8/26 42/44/24
f 8/8/26 10/10/27 42/44/24
f 10/10/27 12/12/28 42/44/24
f 12/12/28 14/14/29 42/44/24
f 14/14/29 16/16/30 42/44/24
f 16/16/30 18/18/31 42/44/24
f 18/18/31 20/20/32 42/44/24
f 20/20/32 22/22/33 42/44/24
f 22/22/33 24/24/34 42/44/24
f 24/24/34 26/26/35 42/44/24
f 26/26/35 28/28/36 42/44/24
f 28/28/36 30/30/37 42/44/24
f 30/30/37 32/32/38 42/44/24
f 32/32/38 34/34/39 42/44/24
f 34/34/39 36/36/40 42/44/24
f 36/36/40 38/38/41 42/44/24
f 38/38/41 40/40/42 42/44/24
f 40/40/42 4/42/22 42/44/24
usemtl blinn1SG
s off
f 43/45/20 44/46/20 45/47/20 46/48/20
f 46/48/43 45/47/43 47/49/43 48/50/43
f 48/50/10 47/49/10 49/51/10 50/52/10
f 50/52/44 49/51/44 44/53/44 43/54/44
f 44/46/45 49/55/45 47/56/45 45/47/45
f 50/57/46 43/45/46 46/48/46 48/58/46
f 51/59/5 52/60/5 53/61/5 54/62/5
f 54/62/47 53/61/47 55/63/47 56/64/47
f 56/64/15 55/63/15 57/65/15 58/66/15
f 58/66/48 57/65/48 52/67/48 51/68/48
f 52/60/49 57/69/49 55/70/49 53/61/49
f 58/71/50 51/59/50 54/62/50 56/72/50
f 59/73/15 60/74/15 61/75/15 62/76/15
f 62/76/51 61/75/51 63/77/51 64/78/51
f 64/78/5 63/77/5 65/79/5 66/80/5
f 66/80/52 65/79/52 60/81/52 59/82/52
f 60/74/53 65/83/53 63/84/53 61/75/53
f 66/85/54 59/73/54 62/76/54 64/86/54
f 67/87/10 68/88/10 69/89/10 70/90/10
f 70/90/55 69/89/55 71/91/55 72/92/55
f 72/92/20 71/91/20 73/93/20 74/94/20
f 74/94/56 73/93/56 68/95/56 67/96/56
f 68/88/57 73/97/57 71/98/57 69/89/57
f 74/99/58 67/87/58 70/90/58 72/100/58
