# Blender v2.77 (sub 0) OBJ File: 'Items.blend'
# www.blender.org
mtllib Ufo.mtl
o Sphere
v -0.433884 0.900969 0.000000
v -0.781832 0.623490 0.000000
v -2.924783 0.066756 0.000000
v -2.924783 -0.066756 0.000000
v -0.781832 -0.406936 0.000000
v -0.433884 -0.485797 -0.000000
v -0.400856 0.900969 -0.166040
v -0.722318 0.623490 -0.299194
v -2.702147 0.066756 -1.119266
v -2.702147 -0.066756 -1.119266
v -0.722318 -0.406936 -0.299194
v -0.400856 -0.485797 -0.166040
v -0.306802 0.900969 -0.306802
v -0.552838 0.623490 -0.552838
v -2.068134 0.066756 -2.068134
v -2.068134 -0.066756 -2.068134
v -0.552838 -0.406936 -0.552838
v -0.306802 -0.485797 -0.306802
v -0.166040 0.900969 -0.400856
v -0.299194 0.623490 -0.722318
v -1.119266 0.066756 -2.702147
v -1.119266 -0.066756 -2.702147
v -0.299194 -0.406936 -0.722318
v -0.166040 -0.485797 -0.400856
v -0.000000 0.900969 -0.433884
v -0.000000 0.623490 -0.781831
v 0.000000 0.066756 -2.924783
v 0.000000 -0.066756 -2.924783
v -0.000000 -0.406936 -0.781831
v -0.000000 -0.485797 -0.433884
v 0.166040 0.900969 -0.400856
v 0.299194 0.623490 -0.722318
v 1.119267 0.066756 -2.702147
v 1.119267 -0.066756 -2.702147
v 0.299194 -0.406936 -0.722318
v 0.166040 -0.485797 -0.400856
v 0.306802 0.900969 -0.306802
v 0.552838 0.623490 -0.552838
v 2.068134 0.066756 -2.068133
v 2.068134 -0.066756 -2.068133
v 0.552838 -0.406936 -0.552838
v 0.306802 -0.485797 -0.306802
v -0.000000 -0.515383 -0.000000
v -0.000000 1.000000 0.000000
v 0.400856 0.900969 -0.166040
v 0.722318 0.623490 -0.299194
v 2.702147 0.066756 -1.119265
v 2.702147 -0.066756 -1.119265
v 0.722318 -0.406936 -0.299194
v 0.400856 -0.485797 -0.166040
v 0.433883 0.900969 0.000000
v 0.781831 0.623490 0.000000
v 2.924783 0.066756 0.000001
v 2.924783 -0.066756 0.000001
v 0.781831 -0.406936 0.000000
v 0.433883 -0.485797 0.000000
v 0.400856 0.900969 0.166040
v 0.722318 0.623490 0.299194
v 2.702147 0.066756 1.119267
v 2.702147 -0.066756 1.119267
v 0.722318 -0.406936 0.299194
v 0.400856 -0.485797 0.166040
v 0.306802 0.900969 0.306802
v 0.552838 0.623490 0.552838
v 2.068133 0.066756 2.068135
v 2.068133 -0.066756 2.068135
v 0.552838 -0.406936 0.552838
v 0.306802 -0.485797 0.306802
v 0.166040 0.900969 0.400856
v 0.299193 0.623490 0.722318
v 1.119265 0.066756 2.702147
v 1.119265 -0.066756 2.702147
v 0.299193 -0.406936 0.722318
v 0.166040 -0.485797 0.400856
v -0.000000 0.900969 0.433883
v -0.000001 0.623490 0.781831
v -0.000001 0.066756 2.924783
v -0.000001 -0.066756 2.924783
v -0.000001 -0.406936 0.781831
v -0.000000 -0.485797 0.433884
v -0.166040 0.900969 0.400856
v -0.299194 0.623490 0.722318
v -1.119267 0.066756 2.702147
v -1.119267 -0.066756 2.702147
v -0.299194 -0.406936 0.722318
v -0.166040 -0.485797 0.400856
v -0.306802 0.900969 0.306802
v -0.552839 0.623490 0.552838
v -2.068134 0.066756 2.068133
v -2.068134 -0.066756 2.068133
v -0.552839 -0.406936 0.552838
v -0.306802 -0.485797 0.306802
v -0.400856 0.900969 0.166040
v -0.722318 0.623490 0.299193
v -2.702147 0.066756 1.119265
v -2.702147 -0.066756 1.119265
v -0.722318 -0.406936 0.299193
v -0.400856 -0.485797 0.166040
v -1.975519 -1.046756 0.021341
v -1.235629 -0.214178 0.086882
v -1.975519 -1.046756 -0.021341
v -1.235629 -0.214178 -0.086882
v -1.945338 -1.076937 0.021341
v -1.112760 -0.337047 0.086882
v -1.945338 -1.076937 -0.021341
v -1.112760 -0.337047 -0.086882
v -2.051675 -1.048744 -0.073786
v -2.051675 -1.048744 0.073786
v -1.947326 -1.153093 -0.073786
v -1.947326 -1.153093 0.073786
v -2.084705 -1.148466 -0.026628
v -2.084705 -1.148466 0.026628
v -2.047048 -1.186123 -0.026628
v -2.047048 -1.186123 0.026628
v 1.945338 -1.076937 0.021341
v 1.112760 -0.337047 0.086882
v 1.945338 -1.076937 -0.021341
v 1.112760 -0.337047 -0.086882
v 1.975519 -1.046756 0.021341
v 1.235629 -0.214178 0.086882
v 1.975519 -1.046756 -0.021341
v 1.235629 -0.214178 -0.086882
v 1.947326 -1.153093 -0.073786
v 1.947326 -1.153093 0.073786
v 2.051675 -1.048744 -0.073786
v 2.051675 -1.048744 0.073786
v 2.047048 -1.186123 -0.026628
v 2.047048 -1.186123 0.026628
v 2.084705 -1.148466 -0.026628
v 2.084705 -1.148466 0.026628
v -0.021341 -1.046756 1.975519
v -0.086882 -0.214178 1.235629
v -0.021341 -1.076937 1.945338
v -0.086882 -0.337047 1.112760
v 0.021341 -1.046756 1.975519
v 0.086882 -0.214178 1.235629
v 0.021341 -1.076937 1.945338
v 0.086882 -0.337047 1.112760
v -0.073786 -1.153093 1.947326
v -0.073786 -1.048744 2.051675
v 0.073786 -1.153093 1.947326
v 0.073786 -1.048744 2.051675
v -0.026628 -1.186123 2.047048
v -0.026628 -1.148466 2.084705
v 0.026628 -1.186123 2.047048
v 0.026628 -1.148466 2.084705
v -0.021341 -1.076937 -1.945338
v -0.086882 -0.337047 -1.112760
v -0.021341 -1.046756 -1.975519
v -0.086882 -0.214178 -1.235629
v 0.021341 -1.076937 -1.945338
v 0.086882 -0.337047 -1.112760
v 0.021341 -1.046756 -1.975519
v 0.086882 -0.214178 -1.235629
v -0.073786 -1.048744 -2.051675
v -0.073786 -1.153093 -1.947326
v 0.073786 -1.048744 -2.051675
v 0.073786 -1.153093 -1.947326
v -0.026628 -1.148466 -2.084705
v -0.026628 -1.186123 -2.047048
v 0.026628 -1.148466 -2.084705
v 0.026628 -1.186123 -2.047048
vt 0.6522 0.3277
vt 0.5392 0.5130
vt 0.4687 0.4290
vt 0.6832 0.3103
vt 0.7202 0.2898
vt 0.6936 0.3227
vt 0.3129 0.6845
vt 0.3010 0.7227
vt 0.2974 0.6894
vt 0.0049 0.1909
vt 0.0175 0.0921
vt 0.0166 0.1909
vt 0.6710 0.3501
vt 0.2928 0.6480
vt 0.3290 0.7138
vt 0.3234 0.9272
vt 0.2812 0.6880
vt 0.2142 0.9177
vt 0.2718 0.7201
vt 0.6363 0.5637
vt 0.7080 0.3303
vt 0.0059 0.0921
vt 0.0203 0.0059
vt 0.6969 0.3637
vt 0.7452 0.5734
vt 0.7242 0.3317
vt 0.2458 0.7066
vt 0.2668 0.6805
vt 0.0342 0.3646
vt 0.0450 0.2886
vt 0.0458 0.3646
vt 0.7261 0.3663
vt 0.2563 0.6681
vt 0.0334 0.2886
vt 0.0447 0.1937
vt 0.7539 0.3575
vt 0.1170 0.8671
vt 0.2270 0.6841
vt 0.8494 0.5406
vt 0.7396 0.3268
vt 0.2514 0.6525
vt 0.0331 0.1937
vt 0.0450 0.0944
vt 0.7520 0.3164
vt 0.7763 0.3387
vt 0.0136 0.6786
vt 0.2182 0.6562
vt 0.9331 0.4704
vt 0.7595 0.3020
vt 0.7897 0.3128
vt 0.2528 0.6364
vt 0.2208 0.6270
vt 0.9834 0.3734
vt 0.0334 0.0944
vt 0.0458 0.0058
vt 0.2603 0.6219
vt 0.0232 0.5694
vt 0.2343 0.6010
vt 0.7922 0.2837
vt 0.9927 0.2644
vt 0.7609 0.2859
vt 0.0469 0.3646
vt 0.0578 0.2886
vt 0.0586 0.3646
vt 0.0738 0.4722
vt 0.2567 0.5822
vt 0.9596 0.1600
vt 0.7560 0.2704
vt 0.2728 0.6115
vt 0.0461 0.2886
vt 0.0575 0.1937
vt 0.7834 0.2557
vt 0.7455 0.2579
vt 0.2883 0.6066
vt 0.0458 0.1937
vt 0.0578 0.0944
vt 0.7646 0.2333
vt 0.1577 0.4017
vt 0.2847 0.5734
vt 0.8892 0.0760
vt 0.3139 0.5759
vt 0.3045 0.6080
vt 0.0461 0.0944
vt 0.0586 0.0058
vt 0.7311 0.2504
vt 0.7386 0.2198
vt 0.2623 0.3688
vt 0.7921 0.0253
vt 0.0214 0.3646
vt 0.0323 0.2886
vt 0.0331 0.3646
vt 0.7095 0.2172
vt 0.3189 0.6155
vt 0.3714 0.3783
vt 0.3398 0.5895
vt 0.6831 0.0156
vt 0.7150 0.2489
vt 0.3294 0.6280
vt 0.5391 0.5129
vt 0.3587 0.6119
vt 0.6816 0.2259
vt 0.5789 0.0483
vt 0.6995 0.2538
vt 0.0206 0.2886
vt 0.0320 0.1937
vt 0.3343 0.6435
vt 0.5721 0.6174
vt 0.3675 0.6398
vt 0.4953 0.1186
vt 0.6871 0.2642
vt 0.0203 0.1937
vt 0.0323 0.0944
vt 0.6593 0.2447
vt 0.4450 0.2156
vt 0.6796 0.2786
vt 0.3328 0.6597
vt 0.0206 0.0944
vt 0.0331 0.0058
vt 0.6458 0.2706
vt 0.3649 0.6690
vt 0.3514 0.6950
vt 0.3253 0.6741
vt 0.0087 0.3662
vt 0.0175 0.2872
vt 0.0203 0.3662
vt 0.6433 0.2998
vt 0.5625 0.7266
vt 0.4356 0.3246
vt 0.6783 0.2948
vt 0.0059 0.2871
vt 0.5119 0.8238
vt 0.1948 0.0058
vt 0.1862 0.0763
vt 0.1796 0.0058
vt 0.1645 0.1153
vt 0.1728 0.0188
vt 0.1796 0.1153
vt 0.2100 0.0785
vt 0.2194 0.0058
vt 0.2251 0.0785
vt 0.1040 0.1159
vt 0.0948 0.0187
vt 0.0985 0.0187
vt 0.1649 0.0137
vt 0.1777 0.0137
vt 0.3337 0.0221
vt 0.3231 0.0058
vt 0.3337 0.0071
vt 0.1035 0.0144
vt 0.0945 0.0058
vt 0.0991 0.0058
vt 0.4670 0.0104
vt 0.4736 0.0186
vt 0.4670 0.0141
vt 0.1899 0.0763
vt 0.1816 0.0829
vt 0.3477 0.0144
vt 0.3443 0.0099
vt 0.3477 0.0097
vt 0.1732 0.0058
vt 0.4184 0.0187
vt 0.4097 0.0099
vt 0.4184 0.0058
vt 0.3563 0.0187
vt 0.3563 0.0058
vt 0.2251 0.0785
vt 0.2346 0.0058
vt 0.2403 0.0785
vt 0.0889 0.1159
vt 0.0797 0.0187
vt 0.0834 0.0187
vt 0.2856 0.0780
vt 0.3007 0.0058
vt 0.3007 0.0776
vt 0.1343 0.1153
vt 0.1426 0.0188
vt 0.1494 0.1153
vt 0.0755 0.0144
vt 0.0883 0.0144
vt 0.3007 0.0060
vt 0.3123 0.0210
vt 0.3007 0.0211
vt 0.1347 0.0137
vt 0.1430 0.0058
vt 0.1475 0.0137
vt 0.1388 0.0188
vt 0.4471 0.0104
vt 0.4537 0.0187
vt 0.4471 0.0141
vt 0.4271 0.0104
vt 0.4338 0.0187
vt 0.4271 0.0141
vt 0.3803 0.0099
vt 0.3836 0.0142
vt 0.3803 0.0146
vt 0.0793 0.0058
vt 0.0840 0.0058
vt 0.3923 0.0186
vt 0.3836 0.0096
vt 0.3923 0.0058
vt 0.4097 0.0187
vt 0.4010 0.0099
vt 0.4097 0.0058
vt 0.1343 0.0058
vt 0.1254 0.1028
vt 0.1192 0.0058
vt 0.2555 0.0058
vt 0.2460 0.0785
vt 0.2403 0.0058
vt 0.1040 0.1159
vt 0.1137 0.0187
vt 0.1192 0.1159
vt 0.2555 0.0780
vt 0.2705 0.0058
vt 0.2705 0.0776
vt 0.4603 0.0104
vt 0.4670 0.0186
vt 0.4603 0.0141
vt 0.3231 0.0067
vt 0.3123 0.0209
vt 0.3123 0.0058
vt 0.3683 0.0186
vt 0.3596 0.0096
vt 0.3683 0.0058
vt 0.4404 0.0104
vt 0.4471 0.0187
vt 0.4404 0.0141
vt 0.1057 0.0144
vt 0.1186 0.0144
vt 0.1291 0.1028
vt 0.1205 0.1077
vt 0.3563 0.0146
vt 0.3596 0.0142
vt 0.3923 0.0058
vt 0.4010 0.0146
vt 0.3923 0.0187
vt 0.1096 0.0058
vt 0.1143 0.0058
vt 0.1333 0.1077
vt 0.1249 0.1159
vt 0.0738 0.1160
vt 0.0643 0.0188
vt 0.0681 0.0188
vt 0.2705 0.0780
vt 0.2856 0.0058
vt 0.2856 0.0776
vt 0.1645 0.1153
vt 0.1540 0.0188
vt 0.1577 0.0188
vt 0.1948 0.0785
vt 0.2042 0.0058
vt 0.2100 0.0785
vt 0.4404 0.0141
vt 0.4338 0.0058
vt 0.4404 0.0104
vt 0.3443 0.0058
vt 0.3337 0.0219
vt 0.3337 0.0067
vt 0.4184 0.0058
vt 0.4271 0.0146
vt 0.4184 0.0187
vt 0.4537 0.0104
vt 0.4603 0.0186
vt 0.4537 0.0141
vt 0.1498 0.0137
vt 0.1626 0.0137
vt 0.0727 0.0143
vt 0.3716 0.0096
vt 0.3683 0.0146
vt 0.3683 0.0099
vt 0.3803 0.0186
vt 0.3803 0.0058
vt 0.1581 0.0058
vt 0.0639 0.0058
vt 0.0685 0.0058
vt 0.4279 0.8943
vt 0.0087 0.0058
vt 0.0466 0.7831
vt 0.0342 0.0058
vt 0.0469 0.0058
vt 0.4687 0.4289
vt 0.0214 0.0058
vt 0.1691 0.0188
vt 0.2157 0.0058
vt 0.0889 0.1159
vt 0.3231 0.0209
vt 0.0906 0.0144
vt 0.4736 0.0058
vt 0.1945 0.0829
vt 0.3443 0.0146
vt 0.1686 0.0058
vt 0.4097 0.0146
vt 0.2308 0.0058
vt 0.0738 0.1159
vt 0.2970 0.0059
vt 0.3123 0.0058
vt 0.1383 0.0058
vt 0.4537 0.0058
vt 0.4338 0.0058
vt 0.4010 0.0146
vt 0.2497 0.0785
vt 0.1100 0.0187
vt 0.2668 0.0059
vt 0.4670 0.0058
vt 0.3231 0.0218
vt 0.4471 0.0058
vt 0.3563 0.0099
vt 0.4010 0.0099
vt 0.1296 0.1159
vt 0.0586 0.1160
vt 0.2819 0.0059
vt 0.1494 0.1153
vt 0.2005 0.0058
vt 0.4338 0.0187
vt 0.3443 0.0209
vt 0.4271 0.0099
vt 0.4603 0.0058
vt 0.0598 0.0143
vt 0.3716 0.0142
vt 0.1535 0.0058
vn -0.2511 0.9667 -0.0500
vn -0.2223 0.9740 -0.0442
vn -0.2208 -0.9743 -0.0439
vn -0.9808 0.0000 -0.1951
vn -0.6187 0.7759 -0.1231
vn -0.0680 -0.9976 -0.0135
vn -0.1567 -0.9872 -0.0312
vn -0.0577 -0.9976 -0.0385
vn -0.1328 -0.9872 -0.0888
vn -0.2129 0.9667 -0.1423
vn -0.1885 0.9740 -0.1259
vn -0.1872 -0.9743 -0.1251
vn -0.8315 0.0000 -0.5556
vn -0.5246 0.7759 -0.3505
vn -0.1423 0.9667 -0.2129
vn -0.1259 0.9740 -0.1885
vn -0.1251 -0.9743 -0.1872
vn -0.5556 0.0000 -0.8315
vn -0.3505 0.7759 -0.5246
vn -0.0385 -0.9976 -0.0577
vn -0.0888 -0.9872 -0.1328
vn -0.0439 -0.9743 -0.2208
vn -0.1951 0.0000 -0.9808
vn -0.1231 0.7759 -0.6187
vn -0.0135 -0.9976 -0.0680
vn -0.0312 -0.9872 -0.1567
vn -0.0500 0.9667 -0.2511
vn -0.0442 0.9740 -0.2223
vn 0.0439 -0.9743 -0.2208
vn 0.1951 0.0000 -0.9808
vn 0.1231 0.7759 -0.6187
vn 0.0135 -0.9976 -0.0680
vn 0.0312 -0.9872 -0.1567
vn 0.0500 0.9667 -0.2511
vn 0.0442 0.9740 -0.2223
vn 0.3505 0.7759 -0.5246
vn 0.0385 -0.9976 -0.0577
vn 0.0888 -0.9872 -0.1328
vn 0.1423 0.9667 -0.2129
vn 0.1259 0.9740 -0.1885
vn 0.1251 -0.9743 -0.1872
vn 0.5556 0.0000 -0.8315
vn 0.0577 -0.9976 -0.0385
vn 0.1328 -0.9872 -0.0888
vn 0.2129 0.9667 -0.1423
vn 0.1885 0.9740 -0.1259
vn 0.1872 -0.9743 -0.1251
vn 0.8315 0.0000 -0.5556
vn 0.5246 0.7759 -0.3505
vn 0.1567 -0.9872 -0.0312
vn 0.2511 0.9667 -0.0500
vn 0.2223 0.9740 -0.0442
vn 0.2208 -0.9743 -0.0439
vn 0.9808 0.0000 -0.1951
vn 0.6187 0.7759 -0.1231
vn 0.0680 -0.9976 -0.0135
vn 0.2223 0.9740 0.0442
vn 0.2208 -0.9743 0.0439
vn 0.9808 0.0000 0.1951
vn 0.6187 0.7759 0.1231
vn 0.0680 -0.9976 0.0135
vn 0.1567 -0.9872 0.0312
vn 0.2511 0.9667 0.0500
vn 0.1872 -0.9743 0.1251
vn 0.8315 0.0000 0.5556
vn 0.5246 0.7759 0.3505
vn 0.0577 -0.9976 0.0385
vn 0.1328 -0.9872 0.0888
vn 0.2129 0.9667 0.1423
vn 0.1885 0.9740 0.1259
vn 0.5556 0.0000 0.8315
vn 0.3505 0.7759 0.5246
vn 0.0385 -0.9976 0.0577
vn 0.0888 -0.9872 0.1328
vn 0.1423 0.9667 0.2129
vn 0.1259 0.9740 0.1885
vn 0.1251 -0.9743 0.1872
vn 0.0135 -0.9976 0.0680
vn 0.0312 -0.9872 0.1567
vn 0.0500 0.9667 0.2511
vn 0.0442 0.9740 0.2223
vn 0.0439 -0.9743 0.2208
vn 0.1951 0.0000 0.9808
vn 0.1231 0.7759 0.6187
vn -0.0135 -0.9976 0.0680
vn -0.0312 -0.9872 0.1567
vn -0.0500 0.9667 0.2511
vn -0.0442 0.9740 0.2223
vn -0.0439 -0.9743 0.2208
vn -0.1951 0.0000 0.9808
vn -0.1231 0.7759 0.6187
vn -0.1423 0.9667 0.2129
vn -0.1259 0.9740 0.1885
vn -0.1251 -0.9743 0.1872
vn -0.5556 0.0000 0.8315
vn -0.3505 0.7759 0.5246
vn -0.0385 -0.9976 0.0577
vn -0.0888 -0.9872 0.1328
vn -0.1872 -0.9743 0.1251
vn -0.8315 0.0000 0.5556
vn -0.5246 0.7759 0.3505
vn -0.0577 -0.9976 0.0385
vn -0.1328 -0.9872 0.0888
vn -0.2129 0.9667 0.1423
vn -0.1885 0.9740 0.1259
vn -0.2208 -0.9743 0.0439
vn -0.9808 0.0000 0.1951
vn -0.6187 0.7759 0.1231
vn -0.0680 -0.9976 0.0135
vn -0.1567 -0.9872 0.0312
vn -0.2511 0.9667 0.0500
vn -0.2223 0.9740 0.0442
vn -0.7475 0.6643 0.0000
vn -0.0416 -0.0416 -0.9983
vn 0.6643 -0.7475 0.0000
vn -0.0416 -0.0416 0.9983
vn 0.4868 0.4868 -0.7253
vn 0.7071 0.7071 0.0000
vn -0.3174 -0.3174 0.8936
vn 0.4868 0.4868 0.7253
vn 0.9997 -0.0261 0.0000
vn -0.0261 0.9997 0.0000
vn -0.7071 -0.7071 0.0000
vn -0.3174 -0.3174 -0.8936
vn 0.3144 -0.9493 0.0000
vn -0.9493 0.3144 0.0000
vn -0.6643 -0.7475 0.0000
vn 0.0416 -0.0416 -0.9983
vn 0.7475 0.6643 0.0000
vn 0.0416 -0.0416 0.9983
vn -0.4868 0.4868 -0.7253
vn -0.7071 0.7071 0.0000
vn 0.3174 -0.3174 0.8936
vn -0.4868 0.4868 0.7253
vn 0.0261 0.9997 0.0000
vn -0.9997 -0.0261 0.0000
vn 0.7071 -0.7071 0.0000
vn 0.3174 -0.3174 -0.8936
vn 0.9493 0.3144 0.0000
vn -0.3144 -0.9493 0.0000
vn -0.9983 -0.0416 0.0416
vn 0.0000 -0.7475 -0.6643
vn 0.9983 -0.0416 0.0416
vn 0.0000 0.6643 0.7475
vn 0.0000 -0.0261 -0.9997
vn 0.0000 0.7071 -0.7071
vn 0.0000 0.3144 0.9493
vn 0.0000 0.9997 0.0261
vn 0.7253 0.4868 -0.4868
vn -0.7253 0.4868 -0.4868
vn 0.0000 -0.7071 0.7071
vn 0.0000 -0.9493 -0.3144
vn 0.8936 -0.3174 0.3174
vn -0.8936 -0.3174 0.3174
vn -0.9983 -0.0416 -0.0416
vn 0.0000 0.6643 -0.7475
vn 0.9983 -0.0416 -0.0416
vn 0.0000 -0.7475 0.6643
vn 0.0000 0.9997 -0.0261
vn 0.0000 0.7071 0.7071
vn 0.0000 -0.9493 0.3144
vn 0.0000 -0.0261 0.9997
vn 0.7253 0.4868 0.4868
vn -0.7253 0.4868 0.4868
vn 0.0000 -0.7071 -0.7071
vn 0.0000 0.3144 -0.9493
vn 0.8936 -0.3174 -0.3174
vn -0.8936 -0.3174 -0.3174
usemtl Material.004
s off
f 2/1/1 9/2/1 3/3/1
f 1/4/2 44/5/2 7/6/2
f 6/7/3 11/8/3 12/9/3
f 3/10/4 10/11/4 4/12/4
f 1/4/5 8/13/5 2/1/5
f 43/14/6 6/7/6 12/9/6
f 5/15/7 10/16/7 11/8/7
f 43/14/8 12/9/8 18/17/8
f 11/8/9 16/18/9 17/19/9
f 8/13/10 15/20/10 9/2/10
f 7/6/11 44/5/11 13/21/11
f 12/9/12 17/19/12 18/17/12
f 9/22/13 16/23/13 10/11/13
f 7/6/14 14/24/14 8/13/14
f 14/24/15 21/25/15 15/20/15
f 13/21/16 44/5/16 19/26/16
f 18/17/17 23/27/17 24/28/17
f 15/29/18 22/30/18 16/31/18
f 13/21/19 20/32/19 14/24/19
f 43/14/20 18/17/20 24/28/20
f 16/18/21 23/27/21 17/19/21
f 23/27/22 30/33/22 24/28/22
f 21/34/23 28/35/23 22/30/23
f 19/26/24 26/36/24 20/32/24
f 43/14/25 24/28/25 30/33/25
f 22/37/26 29/38/26 23/27/26
f 20/32/27 27/39/27 21/25/27
f 19/26/28 44/5/28 25/40/28
f 29/38/29 36/41/29 30/33/29
f 27/42/30 34/43/30 28/35/30
f 26/36/31 31/44/31 32/45/31
f 43/14/32 30/33/32 36/41/32
f 29/38/33 34/46/33 35/47/33
f 26/36/34 33/48/34 27/39/34
f 25/40/35 44/5/35 31/44/35
f 32/45/36 37/49/36 38/50/36
f 43/14/37 36/41/37 42/51/37
f 34/46/38 41/52/38 35/47/38
f 32/45/39 39/53/39 33/48/39
f 31/44/40 44/5/40 37/49/40
f 35/47/41 42/51/41 36/41/41
f 33/54/42 40/55/42 34/43/42
f 43/14/43 42/51/43 50/56/43
f 40/57/44 49/58/44 41/52/44
f 39/53/45 46/59/45 47/60/45
f 37/49/46 44/5/46 45/61/46
f 42/51/47 49/58/47 50/56/47
f 39/62/48 48/63/48 40/64/48
f 38/50/49 45/61/49 46/59/49
f 48/65/50 55/66/50 49/58/50
f 46/59/51 53/67/51 47/60/51
f 45/61/52 44/5/52 51/68/52
f 49/58/53 56/69/53 50/56/53
f 47/70/54 54/71/54 48/63/54
f 45/61/55 52/72/55 46/59/55
f 43/14/56 50/56/56 56/69/56
f 51/68/57 44/5/57 57/73/57
f 55/66/58 62/74/58 56/69/58
f 53/75/59 60/76/59 54/71/59
f 52/72/60 57/73/60 58/77/60
f 43/14/61 56/69/61 62/74/61
f 54/78/62 61/79/62 55/66/62
f 52/72/63 59/80/63 53/67/63
f 62/74/64 67/81/64 68/82/64
f 59/83/65 66/84/65 60/76/65
f 58/77/66 63/85/66 64/86/66
f 43/14/67 62/74/67 68/82/67
f 60/87/68 67/81/68 61/79/68
f 58/77/69 65/88/69 59/80/69
f 57/73/70 44/5/70 63/85/70
f 65/89/71 72/90/71 66/91/71
f 63/85/72 70/92/72 64/86/72
f 43/14/73 68/82/73 74/93/73
f 66/94/74 73/95/74 67/81/74
f 64/86/75 71/96/75 65/88/75
f 63/85/76 44/5/76 69/97/76
f 67/81/77 74/93/77 68/82/77
f 43/14/78 74/93/78 80/98/78
f 73/95/79 78/99/79 79/100/79
f 71/96/80 76/101/80 77/102/80
f 69/97/81 44/5/81 75/103/81
f 73/95/82 80/98/82 74/93/82
f 71/104/83 78/105/83 72/90/83
f 69/97/84 76/101/84 70/92/84
f 43/14/85 80/98/85 86/106/85
f 79/100/86 84/107/86 85/108/86
f 76/101/87 83/109/87 77/102/87
f 75/103/88 44/5/88 81/110/88
f 79/100/89 86/106/89 80/98/89
f 77/111/90 84/112/90 78/105/90
f 75/103/91 82/113/91 76/101/91
f 82/113/92 89/114/92 83/109/92
f 81/110/93 44/5/93 87/115/93
f 85/108/94 92/116/94 86/106/94
f 83/117/95 90/118/95 84/112/95
f 81/110/96 88/119/96 82/113/96
f 43/14/97 86/106/97 92/116/97
f 84/107/98 91/120/98 85/108/98
f 92/116/99 97/121/99 98/122/99
f 89/123/100 96/124/100 90/125/100
f 87/115/101 94/126/101 88/119/101
f 43/14/102 92/116/102 98/122/102
f 90/127/103 97/121/103 91/120/103
f 88/119/104 95/128/104 89/114/104
f 87/115/105 44/5/105 93/129/105
f 97/121/106 6/7/106 98/122/106
f 95/130/107 4/12/107 96/124/107
f 94/126/108 1/4/108 2/1/108
f 43/14/109 98/122/109 6/7/109
f 96/131/110 5/15/110 97/121/110
f 95/128/111 2/1/111 3/3/111
f 93/129/112 44/5/112 1/4/112
f 102/132/113 99/133/113 100/134/113
f 106/135/114 101/136/114 102/137/114
f 104/138/115 105/139/115 106/140/115
f 104/141/116 99/142/116 103/143/116
f 101/136/117 109/144/117 107/145/117
f 106/146/118 100/147/118 104/148/118
f 110/149/119 112/150/119 114/151/119
f 99/142/120 110/149/120 103/143/120
f 103/152/121 109/153/121 105/154/121
f 101/155/122 108/156/122 99/133/122
f 111/157/123 114/158/123 112/159/123
f 109/144/124 111/160/124 107/145/124
f 110/161/125 113/162/125 109/163/125
f 107/164/126 112/159/126 108/165/126
f 118/166/127 115/167/127 116/168/127
f 118/169/128 121/170/128 117/171/128
f 120/172/129 121/173/129 122/174/129
f 116/175/130 119/176/130 120/177/130
f 117/171/131 125/178/131 123/179/131
f 122/180/132 116/181/132 120/182/132
f 124/183/133 130/184/133 126/185/133
f 115/186/134 126/185/134 119/176/134
f 119/187/135 125/188/135 121/189/135
f 117/190/136 124/191/136 115/192/136
f 127/193/137 130/194/137 128/195/137
f 123/179/138 129/196/138 127/197/138
f 126/198/139 129/199/139 125/200/139
f 123/201/140 128/202/140 124/203/140
f 134/204/141 131/205/141 132/206/141
f 138/207/142 133/208/142 134/209/142
f 136/210/143 137/211/143 138/212/143
f 132/213/144 135/214/144 136/215/144
f 137/216/145 139/217/145 133/218/145
f 138/219/146 132/220/146 136/221/146
f 140/222/147 146/223/147 142/224/147
f 131/225/148 142/226/148 135/227/148
f 137/211/149 142/228/149 141/229/149
f 133/230/150 140/231/150 131/205/150
f 143/232/151 146/223/151 144/233/151
f 141/234/152 143/235/152 139/236/152
f 141/229/153 146/237/153 145/238/153
f 139/239/154 144/240/154 140/231/154
f 148/241/155 149/242/155 147/243/155
f 154/244/156 149/245/156 150/246/156
f 154/247/157 151/248/157 153/249/157
f 148/250/158 151/251/158 152/252/158
f 153/253/159 155/254/159 149/255/159
f 154/256/160 148/257/160 152/258/160
f 156/259/161 162/260/161 158/261/161
f 147/262/162 158/263/162 151/264/162
f 153/249/163 158/265/163 157/266/163
f 149/242/164 156/267/164 147/243/164
f 159/268/165 162/269/165 160/270/165
f 157/271/166 159/268/166 155/272/166
f 158/265/167 161/273/167 157/266/167
f 156/267/168 159/274/168 160/275/168
f 2/1/1 8/13/1 9/2/1
f 6/7/3 5/15/3 11/8/3
f 3/10/4 9/22/4 10/11/4
f 1/4/5 7/6/5 8/13/5
f 5/15/7 4/276/7 10/16/7
f 11/8/9 10/16/9 16/18/9
f 8/13/10 14/24/10 15/20/10
f 12/9/12 11/8/12 17/19/12
f 9/22/13 15/277/13 16/23/13
f 7/6/14 13/21/14 14/24/14
f 14/24/15 20/32/15 21/25/15
f 18/17/17 17/19/17 23/27/17
f 15/29/18 21/34/18 22/30/18
f 13/21/19 19/26/19 20/32/19
f 16/18/21 22/37/21 23/27/21
f 23/27/22 29/38/22 30/33/22
f 21/34/23 27/42/23 28/35/23
f 19/26/24 25/40/24 26/36/24
f 22/37/26 28/278/26 29/38/26
f 20/32/27 26/36/27 27/39/27
f 29/38/29 35/47/29 36/41/29
f 27/42/30 33/54/30 34/43/30
f 26/36/31 25/40/31 31/44/31
f 29/38/33 28/278/33 34/46/33
f 26/36/34 32/45/34 33/48/34
f 32/45/36 31/44/36 37/49/36
f 34/46/38 40/57/38 41/52/38
f 32/45/39 38/50/39 39/53/39
f 35/47/41 41/52/41 42/51/41
f 33/54/42 39/279/42 40/55/42
f 40/57/44 48/65/44 49/58/44
f 39/53/45 38/50/45 46/59/45
f 42/51/47 41/52/47 49/58/47
f 39/62/48 47/70/48 48/63/48
f 38/50/49 37/49/49 45/61/49
f 48/65/50 54/78/50 55/66/50
f 46/59/51 52/72/51 53/67/51
f 49/58/53 55/66/53 56/69/53
f 47/70/54 53/75/54 54/71/54
f 45/61/55 51/68/55 52/72/55
f 55/66/58 61/79/58 62/74/58
f 53/75/59 59/83/59 60/76/59
f 52/72/60 51/68/60 57/73/60
f 54/78/62 60/87/62 61/79/62
f 52/72/63 58/77/63 59/80/63
f 62/74/64 61/79/64 67/81/64
f 59/83/65 65/280/65 66/84/65
f 58/77/66 57/73/66 63/85/66
f 60/87/68 66/94/68 67/81/68
f 58/77/69 64/86/69 65/88/69
f 65/89/71 71/104/71 72/90/71
f 63/85/72 69/97/72 70/92/72
f 66/94/74 72/281/74 73/95/74
f 64/86/75 70/92/75 71/96/75
f 67/81/77 73/95/77 74/93/77
f 73/95/79 72/281/79 78/99/79
f 71/96/80 70/92/80 76/101/80
f 73/95/82 79/100/82 80/98/82
f 71/104/83 77/111/83 78/105/83
f 69/97/84 75/103/84 76/101/84
f 79/100/86 78/99/86 84/107/86
f 76/101/87 82/113/87 83/109/87
f 79/100/89 85/108/89 86/106/89
f 77/111/90 83/117/90 84/112/90
f 75/103/91 81/110/91 82/113/91
f 82/113/92 88/119/92 89/114/92
f 85/108/94 91/120/94 92/116/94
f 83/117/95 89/282/95 90/118/95
f 81/110/96 87/115/96 88/119/96
f 84/107/98 90/127/98 91/120/98
f 92/116/99 91/120/99 97/121/99
f 89/123/100 95/130/100 96/124/100
f 87/115/101 93/129/101 94/126/101
f 90/127/103 96/131/103 97/121/103
f 88/119/104 94/126/104 95/128/104
f 97/121/106 5/15/106 6/7/106
f 95/130/107 3/10/107 4/12/107
f 94/126/108 93/129/108 1/4/108
f 96/131/110 4/276/110 5/15/110
f 95/128/111 94/126/111 2/1/111
f 102/132/113 101/155/113 99/133/113
f 106/135/114 105/283/114 101/136/114
f 104/138/115 103/284/115 105/139/115
f 104/141/116 100/285/116 99/142/116
f 101/136/117 105/283/117 109/144/117
f 106/146/118 102/286/118 100/147/118
f 110/149/119 108/287/119 112/150/119
f 99/142/120 108/287/120 110/149/120
f 103/152/121 110/288/121 109/153/121
f 101/155/122 107/289/122 108/156/122
f 111/157/123 113/290/123 114/158/123
f 109/144/124 113/291/124 111/160/124
f 110/161/125 114/292/125 113/162/125
f 107/164/126 111/157/126 112/159/126
f 118/166/127 117/293/127 115/167/127
f 118/169/128 122/294/128 121/170/128
f 120/172/129 119/295/129 121/173/129
f 116/175/130 115/186/130 119/176/130
f 117/171/131 121/170/131 125/178/131
f 122/180/132 118/296/132 116/181/132
f 124/183/133 128/297/133 130/184/133
f 115/186/134 124/183/134 126/185/134
f 119/187/135 126/298/135 125/188/135
f 117/190/136 123/299/136 124/191/136
f 127/193/137 129/199/137 130/194/137
f 123/179/138 125/178/138 129/196/138
f 126/198/139 130/194/139 129/199/139
f 123/201/140 127/300/140 128/202/140
f 134/204/141 133/230/141 131/205/141
f 138/207/142 137/301/142 133/208/142
f 136/210/143 135/302/143 137/211/143
f 132/213/144 131/303/144 135/214/144
f 137/216/145 141/304/145 139/217/145
f 138/219/146 134/305/146 132/220/146
f 140/222/147 144/233/147 146/223/147
f 131/225/148 140/306/148 142/226/148
f 137/211/149 135/302/149 142/228/149
f 133/230/150 139/239/150 140/231/150
f 143/232/151 145/307/151 146/223/151
f 141/234/152 145/308/152 143/235/152
f 141/229/153 142/228/153 146/237/153
f 139/239/154 143/309/154 144/240/154
f 148/241/155 150/310/155 149/242/155
f 154/244/156 153/311/156 149/245/156
f 154/247/157 152/312/157 151/248/157
f 148/250/158 147/313/158 151/251/158
f 153/253/159 157/314/159 155/254/159
f 154/256/160 150/315/160 148/257/160
f 156/259/161 160/316/161 162/260/161
f 147/262/162 156/317/162 158/263/162
f 153/249/163 151/248/163 158/265/163
f 149/242/164 155/318/164 156/267/164
f 159/268/165 161/319/165 162/269/165
f 157/271/166 161/319/166 159/268/166
f 158/265/167 162/320/167 161/273/167
f 156/267/168 155/318/168 159/274/168
